<svg width="27" height="18" viewBox="0 0 27 18" fill="none" xmlns="http://www.w3.org/2000/svg">
<path fill-rule="evenodd" clip-rule="evenodd" d="M0 18H27V0H0V18Z" fill="#B22234"/>
<path fill-rule="evenodd" clip-rule="evenodd" d="M0 2.07732H27H0ZM0 4.84648H27H0ZM0 7.61571H27H0ZM0 10.3849H27H0ZM0 13.1542H27H0ZM0 15.9234H27H0Z" fill="black"/>
<path fill-rule="evenodd" clip-rule="evenodd" d="M0 2.76923H27V1.38461H0V2.76923ZM0 5.53845H27V4.15384H0V5.53845ZM0 8.3077H27V6.92308H0V8.3077ZM0 11.0769H27V9.69234H0V11.0769ZM0 13.8462H27V12.4615H0V13.8462ZM0 16.6154H27V15.2308H0V16.6154Z" fill="white"/>
<path fill-rule="evenodd" clip-rule="evenodd" d="M0 9.69231H10.8V0H0V9.69231Z" fill="#3C3B6E"/>
<path fill-rule="evenodd" clip-rule="evenodd" d="M0.899975 0.415375L0.801813 0.798082H0.484131L0.741145 1.0346L0.642983 1.41728L0.899975 1.18076L1.15699 1.41728L1.05883 1.0346L1.31582 0.798082H0.998137L0.899975 0.415375Z" fill="white"/>
<path fill-rule="evenodd" clip-rule="evenodd" d="M0.899975 2.35385L0.801813 2.73656H0.484131L0.741145 2.97308L0.642983 3.35576L0.899975 3.11924L1.15699 3.35576L1.05883 2.97308L1.31582 2.73656H0.998137L0.899975 2.35385Z" fill="white"/>
<path fill-rule="evenodd" clip-rule="evenodd" d="M0.899975 4.29231L0.801813 4.67502H0.484131L0.741145 4.91154L0.642983 5.29422L0.899975 5.0577L1.15699 5.29422L1.05883 4.91154L1.31582 4.67502H0.998137L0.899975 4.29231Z" fill="white"/>
<path fill-rule="evenodd" clip-rule="evenodd" d="M0.899975 6.23077L0.801813 6.61348H0.484131L0.741145 6.85L0.642983 7.23268L0.899975 6.99616L1.15699 7.23268L1.05883 6.85L1.31582 6.61348H0.998137L0.899975 6.23077Z" fill="white"/>
<path fill-rule="evenodd" clip-rule="evenodd" d="M0.998137 8.55193L0.899975 8.16922L0.801813 8.55193H0.484131L0.741145 8.78845L0.642961 9.17116L0.899975 8.93461L1.15699 9.17116L1.0588 8.78845L1.31582 8.55193H0.998137Z" fill="white"/>
<path fill-rule="evenodd" clip-rule="evenodd" d="M1.80012 1.38461L1.70196 1.76732H1.38428L1.64127 2.00384L1.54311 2.38652L1.80012 2.15L2.05711 2.38652L1.95895 2.00384L2.21596 1.76732H1.89828L1.80012 1.38461Z" fill="white"/>
<path fill-rule="evenodd" clip-rule="evenodd" d="M1.80012 3.32307L1.70196 3.70578H1.38428L1.64127 3.9423L1.54311 4.32498L1.80012 4.08846L2.05711 4.32498L1.95895 3.9423L2.21596 3.70578H1.89828L1.80012 3.32307Z" fill="white"/>
<path fill-rule="evenodd" clip-rule="evenodd" d="M1.80012 5.26154L1.70196 5.64424H1.38428L1.64127 5.88076L1.54311 6.26344L1.80012 6.02692L2.05711 6.26344L1.95895 5.88076L2.21596 5.64424H1.89828L1.80012 5.26154Z" fill="white"/>
<path fill-rule="evenodd" clip-rule="evenodd" d="M1.8983 7.58269L1.80014 7.19998L1.70198 7.58269H1.38428L1.64129 7.81921L1.54313 8.20189L1.80014 7.96537L2.05713 8.20189L1.95897 7.81921L2.21599 7.58269H1.8983Z" fill="white"/>
<path fill-rule="evenodd" clip-rule="evenodd" d="M2.70002 0.415375L2.60186 0.798082H2.28418L2.54117 1.0346L2.44301 1.41728L2.70002 1.18076L2.95704 1.41728L2.85888 1.0346L3.11587 0.798082H2.79819L2.70002 0.415375Z" fill="white"/>
<path fill-rule="evenodd" clip-rule="evenodd" d="M2.70002 2.35385L2.60186 2.73656H2.28418L2.54117 2.97308L2.44301 3.35576L2.70002 3.11924L2.95704 3.35576L2.85888 2.97308L3.11587 2.73656H2.79819L2.70002 2.35385Z" fill="white"/>
<path fill-rule="evenodd" clip-rule="evenodd" d="M2.70002 4.29231L2.60186 4.67502H2.28418L2.54117 4.91154L2.44301 5.29422L2.70002 5.0577L2.95704 5.29422L2.85888 4.91154L3.11587 4.67502H2.79819L2.70002 4.29231Z" fill="white"/>
<path fill-rule="evenodd" clip-rule="evenodd" d="M2.70002 6.23077L2.60186 6.61348H2.28418L2.54117 6.85L2.44301 7.23268L2.70002 6.99616L2.95704 7.23268L2.85888 6.85L3.11587 6.61348H2.79819L2.70002 6.23077Z" fill="white"/>
<path fill-rule="evenodd" clip-rule="evenodd" d="M2.79819 8.55193L2.70002 8.16922L2.60186 8.55193H2.28418L2.54117 8.78845L2.44301 9.17116L2.70002 8.93461L2.95704 9.17116L2.85885 8.78845L3.11587 8.55193H2.79819Z" fill="white"/>
<path fill-rule="evenodd" clip-rule="evenodd" d="M3.4411 2.00383L3.34293 2.38651L3.59993 2.14999L3.85694 2.38651L3.75878 2.00383L4.01579 1.76731H3.69809L3.59993 1.3846L3.50176 1.76731H3.18408L3.4411 2.00383Z" fill="white"/>
<path fill-rule="evenodd" clip-rule="evenodd" d="M3.59993 3.32307L3.50176 3.70578H3.18408L3.4411 3.9423L3.34293 4.32498L3.59993 4.08846L3.85694 4.32498L3.75878 3.9423L4.01577 3.70578H3.69809L3.59993 3.32307Z" fill="white"/>
<path fill-rule="evenodd" clip-rule="evenodd" d="M3.59993 5.26154L3.50176 5.64424H3.18408L3.4411 5.88076L3.34293 6.26344L3.59993 6.02692L3.85694 6.26344L3.75878 5.88076L4.01577 5.64424H3.69809L3.59993 5.26154Z" fill="white"/>
<path fill-rule="evenodd" clip-rule="evenodd" d="M3.69809 7.58269L3.59993 7.19998L3.50176 7.58269H3.18408L3.4411 7.81921L3.34291 8.20189L3.59993 7.96537L3.85694 8.20189L3.75876 7.81921L4.01577 7.58269H3.69809Z" fill="white"/>
<path fill-rule="evenodd" clip-rule="evenodd" d="M4.50007 0.415375L4.40191 0.798082H4.08423L4.34122 1.0346L4.24306 1.41728L4.50007 1.18076L4.75706 1.41728L4.6589 1.0346L4.91592 0.798082H4.59823L4.50007 0.415375Z" fill="white"/>
<path fill-rule="evenodd" clip-rule="evenodd" d="M4.50007 2.35385L4.40191 2.73656H4.08423L4.34122 2.97308L4.24306 3.35576L4.50007 3.11924L4.75706 3.35576L4.6589 2.97308L4.91592 2.73656H4.59823L4.50007 2.35385Z" fill="white"/>
<path fill-rule="evenodd" clip-rule="evenodd" d="M4.50007 4.29231L4.40191 4.67502H4.08423L4.34122 4.91154L4.24306 5.29422L4.50007 5.0577L4.75706 5.29422L4.6589 4.91154L4.91592 4.67502H4.59823L4.50007 4.29231Z" fill="white"/>
<path fill-rule="evenodd" clip-rule="evenodd" d="M4.50007 6.23077L4.40191 6.61348H4.08423L4.34122 6.85L4.24306 7.23268L4.50007 6.99616L4.75706 7.23268L4.6589 6.85L4.91592 6.61348H4.59823L4.50007 6.23077Z" fill="white"/>
<path fill-rule="evenodd" clip-rule="evenodd" d="M4.59826 8.55193L4.50009 8.16922L4.40193 8.55193H4.08423L4.34124 8.78845L4.24308 9.17116L4.50009 8.93461L4.75709 9.17116L4.65892 8.78845L4.91594 8.55193H4.59826Z" fill="white"/>
<path fill-rule="evenodd" clip-rule="evenodd" d="M5.39997 1.38461L5.30181 1.76732H4.98413L5.24112 2.00384L5.14296 2.38652L5.39997 2.15L5.65699 2.38652L5.55883 2.00384L5.81582 1.76732H5.49814L5.39997 1.38461Z" fill="white"/>
<path fill-rule="evenodd" clip-rule="evenodd" d="M5.39997 3.32307L5.30181 3.70578H4.98413L5.24112 3.9423L5.14296 4.32498L5.39997 4.08846L5.65699 4.32498L5.55883 3.9423L5.81582 3.70578H5.49814L5.39997 3.32307Z" fill="white"/>
<path fill-rule="evenodd" clip-rule="evenodd" d="M5.39997 5.26154L5.30181 5.64424H4.98413L5.24112 5.88076L5.14296 6.26344L5.39997 6.02692L5.65699 6.26344L5.55883 5.88076L5.81582 5.64424H5.49814L5.39997 5.26154Z" fill="white"/>
<path fill-rule="evenodd" clip-rule="evenodd" d="M5.49814 7.58269L5.39997 7.19998L5.30181 7.58269H4.98413L5.24112 7.81921L5.14296 8.20189L5.39997 7.96537L5.65699 8.20189L5.5588 7.81921L5.81582 7.58269H5.49814Z" fill="white"/>
<path fill-rule="evenodd" clip-rule="evenodd" d="M6.30012 0.415375L6.20196 0.798082H5.88428L6.14129 1.0346L6.04313 1.41728L6.30012 1.18076L6.55713 1.41728L6.45897 1.0346L6.71596 0.798082H6.39828L6.30012 0.415375Z" fill="white"/>
<path fill-rule="evenodd" clip-rule="evenodd" d="M6.30012 2.35385L6.20196 2.73656H5.88428L6.14129 2.97308L6.04313 3.35576L6.30012 3.11924L6.55713 3.35576L6.45897 2.97308L6.71596 2.73656H6.39828L6.30012 2.35385Z" fill="white"/>
<path fill-rule="evenodd" clip-rule="evenodd" d="M6.30012 4.29231L6.20196 4.67502H5.88428L6.14129 4.91154L6.04313 5.29422L6.30012 5.0577L6.55713 5.29422L6.45897 4.91154L6.71596 4.67502H6.39828L6.30012 4.29231Z" fill="white"/>
<path fill-rule="evenodd" clip-rule="evenodd" d="M6.30012 6.23077L6.20196 6.61348H5.88428L6.14129 6.85L6.04313 7.23268L6.30012 6.99616L6.55713 7.23268L6.45897 6.85L6.71596 6.61348H6.39828L6.30012 6.23077Z" fill="white"/>
<path fill-rule="evenodd" clip-rule="evenodd" d="M6.39828 8.55193L6.30012 8.16922L6.20196 8.55193H5.88428L6.14129 8.78845L6.04311 9.17116L6.30012 8.93461L6.55713 9.17116L6.45895 8.78845L6.71596 8.55193H6.39828Z" fill="white"/>
<path fill-rule="evenodd" clip-rule="evenodd" d="M7.04119 2.00383L6.94303 2.38651L7.20005 2.14999L7.45704 2.38651L7.35888 2.00383L7.61589 1.76731H7.29821L7.20005 1.3846L7.10186 1.76731H6.78418L7.04119 2.00383Z" fill="white"/>
<path fill-rule="evenodd" clip-rule="evenodd" d="M7.20002 3.32307L7.10186 3.70578H6.78418L7.04117 3.9423L6.94301 4.32498L7.20002 4.08846L7.45702 4.32498L7.35885 3.9423L7.61587 3.70578H7.29819L7.20002 3.32307Z" fill="white"/>
<path fill-rule="evenodd" clip-rule="evenodd" d="M7.20002 5.26154L7.10186 5.64424H6.78418L7.04117 5.88076L6.94301 6.26344L7.20002 6.02692L7.45702 6.26344L7.35885 5.88076L7.61587 5.64424H7.29819L7.20002 5.26154Z" fill="white"/>
<path fill-rule="evenodd" clip-rule="evenodd" d="M7.29821 7.58269L7.20005 7.19998L7.10188 7.58269H6.78418L7.04119 7.81921L6.94303 8.20189L7.20005 7.96537L7.45704 8.20189L7.35888 7.81921L7.61589 7.58269H7.29821Z" fill="white"/>
<path fill-rule="evenodd" clip-rule="evenodd" d="M8.09993 0.415375L8.00176 0.798082H7.68408L7.94107 1.0346L7.84291 1.41728L8.09993 1.18076L8.35694 1.41728L8.25878 1.0346L8.51577 0.798082H8.19809L8.09993 0.415375Z" fill="white"/>
<path fill-rule="evenodd" clip-rule="evenodd" d="M8.09993 2.35385L8.00176 2.73656H7.68408L7.94107 2.97308L7.84291 3.35576L8.09993 3.11924L8.35694 3.35576L8.25878 2.97308L8.51577 2.73656H8.19809L8.09993 2.35385Z" fill="white"/>
<path fill-rule="evenodd" clip-rule="evenodd" d="M8.09993 4.29231L8.00176 4.67502H7.68408L7.94107 4.91154L7.84291 5.29422L8.09993 5.0577L8.35694 5.29422L8.25878 4.91154L8.51577 4.67502H8.19809L8.09993 4.29231Z" fill="white"/>
<path fill-rule="evenodd" clip-rule="evenodd" d="M8.09993 6.23077L8.00176 6.61348H7.68408L7.94107 6.85L7.84291 7.23268L8.09993 6.99616L8.35694 7.23268L8.25878 6.85L8.51577 6.61348H8.19809L8.09993 6.23077Z" fill="white"/>
<path fill-rule="evenodd" clip-rule="evenodd" d="M8.19809 8.55193L8.09993 8.16922L8.00176 8.55193H7.68408L7.94107 8.78845L7.84291 9.17116L8.09993 8.93461L8.35694 9.17116L8.25876 8.78845L8.51577 8.55193H8.19809Z" fill="white"/>
<path fill-rule="evenodd" clip-rule="evenodd" d="M8.841 2.00383L8.74284 2.38651L8.99983 2.14999L9.25684 2.38651L9.15868 2.00383L9.41569 1.76731H9.09799L8.99983 1.3846L8.90167 1.76731H8.58398L8.841 2.00383Z" fill="white"/>
<path fill-rule="evenodd" clip-rule="evenodd" d="M8.99983 3.32307L8.90167 3.70578H8.58398L8.841 3.9423L8.74284 4.32498L8.99983 4.08846L9.25684 4.32498L9.15868 3.9423L9.41567 3.70578H9.09799L8.99983 3.32307Z" fill="white"/>
<path fill-rule="evenodd" clip-rule="evenodd" d="M8.99983 5.26154L8.90167 5.64424H8.58398L8.841 5.88076L8.74284 6.26344L8.99983 6.02692L9.25684 6.26344L9.15868 5.88076L9.41567 5.64424H9.09799L8.99983 5.26154Z" fill="white"/>
<path fill-rule="evenodd" clip-rule="evenodd" d="M9.09799 7.58269L8.99983 7.19998L8.90167 7.58269H8.58398L8.841 7.81921L8.74281 8.20189L8.99983 7.96537L9.25684 8.20189L9.15866 7.81921L9.41567 7.58269H9.09799Z" fill="white"/>
<path fill-rule="evenodd" clip-rule="evenodd" d="M9.74114 1.0346L9.64298 1.41728L9.9 1.18076L10.157 1.41728L10.0588 1.0346L10.3158 0.798082H9.99816L9.9 0.415375L9.80181 0.798082H9.48413L9.74114 1.0346Z" fill="white"/>
<path fill-rule="evenodd" clip-rule="evenodd" d="M9.89997 2.35385L9.80181 2.73656H9.48413L9.74112 2.97308L9.64296 3.35576L9.89997 3.11924L10.157 3.35576L10.0588 2.97308L10.3158 2.73656H9.99814L9.89997 2.35385Z" fill="white"/>
<path fill-rule="evenodd" clip-rule="evenodd" d="M9.89997 4.29231L9.80181 4.67502H9.48413L9.74112 4.91154L9.64296 5.29422L9.89997 5.0577L10.157 5.29422L10.0588 4.91154L10.3158 4.67502H9.99814L9.89997 4.29231Z" fill="white"/>
<path fill-rule="evenodd" clip-rule="evenodd" d="M9.89997 6.23077L9.80181 6.61348H9.48413L9.74112 6.85L9.64296 7.23268L9.89997 6.99616L10.157 7.23268L10.0588 6.85L10.3158 6.61348H9.99814L9.89997 6.23077Z" fill="white"/>
<path fill-rule="evenodd" clip-rule="evenodd" d="M9.99816 8.55193L9.9 8.16922L9.80183 8.55193H9.48413L9.74114 8.78845L9.64298 9.17116L9.9 8.93461L10.157 9.17116L10.0588 8.78845L10.3158 8.55193H9.99816Z" fill="white"/>
</svg>
