<svg xmlns="http://www.w3.org/2000/svg" width="50" height="50" fill="none" viewBox="0 0 50 50">
    <g fill="#8E8E8E" clip-path="url(#clip0)">
        <path d="M43.675 6.626h-4.217V2.41c0-1.326-1.084-2.41-2.409-2.41H6.326C5 0 3.916 1.084 3.916 2.41v38.554c0 1.325 1.084 2.41 2.41 2.41h4.217v4.216c0 1.326 1.083 2.41 2.41 2.41h20.48c1.325 0 3.2-.743 4.164-1.651l6.732-6.336c.965-.908 1.755-2.736 1.755-4.061V9.036c0-1.325-1.084-2.41-2.41-2.41zm-33.133 2.41v32.53H6.326c-.327 0-.603-.276-.603-.602V2.41c0-.327.276-.603.603-.603h30.723c.326 0 .602.276.602.603v4.217H12.952c-1.326 0-2.41 1.084-2.41 2.41zm32.548 31.66l-6.731 6.337c-.138.13-.318.256-.516.377v-5.543c0-.413.167-.786.442-1.063.278-.275.65-.443 1.064-.443h6.027c-.093.127-.189.244-.286.336zm1.186-2.744c0 .179-.033.386-.082.602H37.35c-1.828.004-3.31 1.485-3.313 3.313v6.253c-.215.043-.423.073-.603.073H12.952c-.327 0-.602-.276-.602-.603V9.036c0-.326.275-.602.602-.602h30.723c.326 0 .602.276.602.602v28.916z"/>
        <path d="M37.048 15.061h-17.47c-.499 0-.903.404-.903.904 0 .499.404.903.903.903h17.47c.5 0 .904-.404.904-.903 0-.5-.405-.904-.904-.904zM37.048 27.108h-17.47c-.499 0-.903.404-.903.904 0 .499.404.903.903.903h17.47c.5 0 .904-.404.904-.903 0-.5-.405-.904-.904-.904zM29.217 33.132H19.58c-.5 0-.904.404-.904.904s.404.903.904.903h9.638c.5 0 .903-.404.903-.903 0-.5-.404-.904-.903-.904zM37.048 21.085h-17.47c-.499 0-.903.405-.903.904 0 .5.404.904.903.904h17.47c.5 0 .904-.405.904-.904 0-.5-.405-.904-.904-.904z"/>
        <path d="M49.413 1.989c.366-.366.366-.96 0-1.326-.366-.366-.96-.366-1.326 0L.8 47.95c-.366.366-.366.96 0 1.325.366.367.96.367 1.326 0L49.413 1.99z"/>
    </g>
    <defs>
        <clipPath id="clip0">
            <path fill="#fff" d="M0 0H50V50H0z"/>
        </clipPath>
    </defs>
</svg>
