<svg xmlns="http://www.w3.org/2000/svg" width="15" height="18" fill="none" viewBox="0 0 15 18">
    <g clip-path="url(#clip0)">
        <path fill="#000" d="M14.686 14.028c-.27.629-.588 1.208-.958 1.74-.503.725-.915 1.228-1.233 1.506-.493.458-1.02.693-1.585.706-.406 0-.895-.117-1.464-.353-.572-.236-1.097-.352-1.577-.352-.503 0-1.043.116-1.62.352-.579.236-1.045.36-1.401.372-.542.023-1.082-.218-1.621-.724-.344-.304-.775-.824-1.29-1.56-.553-.787-1.008-1.7-1.364-2.74C.19 11.853 0 10.766 0 9.713c0-1.207.258-2.247.774-3.119.406-.7.946-1.253 1.622-1.658.676-.406 1.407-.612 2.193-.626.43 0 .995.135 1.696.4.7.265 1.148.4 1.345.4.147 0 .646-.158 1.492-.472.8-.29 1.475-.411 2.027-.364 1.499.123 2.624.72 3.373 1.795-1.34.82-2.003 1.97-1.99 3.445.012 1.148.425 2.104 1.235 2.863.367.352.777.624 1.233.818-.099.29-.203.567-.314.834zM11.249.36c0 .9-.325 1.74-.974 2.518-.782.925-1.729 1.46-2.755 1.375-.013-.108-.021-.221-.021-.34 0-.865.372-1.79 1.033-2.546.33-.383.75-.701 1.259-.955.508-.25.988-.389 1.44-.413.013.12.018.241.018.36z"/>
    </g>
    <defs>
        <clipPath id="clip0">
            <path fill="#fff" d="M0 0H15V18H0z"/>
        </clipPath>
    </defs>
</svg>
