<svg width="27" height="18" viewBox="0 0 27 18" fill="none" xmlns="http://www.w3.org/2000/svg">
<path fill-rule="evenodd" clip-rule="evenodd" d="M0 18H27V0H0V18Z" fill="white"/>
<path fill-rule="evenodd" clip-rule="evenodd" d="M6.11487 6.87272L8.56086 3.19089L6.11487 6.87272ZM5.19763 6.2591L7.64362 2.57726L5.19763 6.2591ZM4.28027 5.64544L6.72626 1.96364L4.28027 5.64544Z" fill="black"/>
<path fill-rule="evenodd" clip-rule="evenodd" d="M4.56854 5.91607L3.95117 5.48811L6.42068 1.63636L7.03805 2.06432L4.56854 5.91607ZM5.49472 6.55802L4.87732 6.13007L7.34683 2.27831L7.96423 2.7063L5.49472 6.55802ZM6.42084 7.2L5.80347 6.77202L8.27298 2.9203L8.89035 3.34825L6.42084 7.2Z" fill="black"/>
<path fill-rule="evenodd" clip-rule="evenodd" d="M19.9442 16.0364L22.3902 12.3545L19.9442 16.0364ZM19.0271 15.4227L21.4731 11.7409L19.0271 15.4227ZM18.1099 14.8091L20.5559 11.1273L18.1099 14.8091Z" fill="black"/>
<path fill-rule="evenodd" clip-rule="evenodd" d="M18.3976 15.0797L17.7803 14.6517L20.2498 10.8L20.8672 11.228L18.3976 15.0797ZM19.3237 15.7217L18.7063 15.2937L21.1758 11.4419L21.7932 11.8699L19.3237 15.7217ZM20.2498 16.3636L19.6324 15.9356L22.102 12.0839L22.7193 12.5119L20.2498 16.3636Z" fill="black"/>
<path fill-rule="evenodd" clip-rule="evenodd" d="M18.7683 12.7636L22.061 14.7273L18.7683 12.7636Z" fill="black"/>
<path fill-rule="evenodd" clip-rule="evenodd" d="M21.8552 14.7273L18.7683 12.7352L18.9741 12.4364L22.061 14.4285L21.8552 14.7273Z" fill="white"/>
<path fill-rule="evenodd" clip-rule="evenodd" d="M9.59367 6.47863C10.9714 4.38987 13.7636 3.82544 15.8302 5.21793C17.8968 6.61047 18.4552 9.43256 17.0775 11.5214C15.6997 13.6101 12.9076 14.1746 10.841 12.7821C8.77437 11.3895 8.21594 8.56738 9.59367 6.47863Z" fill="#CD2E3A"/>
<path fill-rule="evenodd" clip-rule="evenodd" d="M9.59367 6.47864C8.90479 7.52303 9.18404 8.93409 10.2173 9.63033C11.2506 10.3266 12.6467 10.0444 13.3356 9C14.0244 7.95561 15.4205 7.6734 16.4538 8.36967C17.4871 9.06591 17.7663 10.477 17.0775 11.5214C15.6997 13.6102 12.9076 14.1746 10.841 12.7821C8.77437 11.3895 8.21594 8.5674 9.59367 6.47864Z" fill="#0047A0"/>
<path fill-rule="evenodd" clip-rule="evenodd" d="M8.65817 14.8832L6.16357 11.1011L8.65817 14.8832ZM7.7225 15.5135L5.22791 11.7315L7.7225 15.5135ZM6.78707 16.1439L4.29248 12.3618L6.78707 16.1439Z" fill="black"/>
<path fill-rule="evenodd" clip-rule="evenodd" d="M8.34628 15.0933L5.85168 11.3112L6.47533 10.891L8.96992 14.6731L8.34628 15.0933ZM7.41073 15.7236L4.91614 11.9416L5.53978 11.5214L8.03437 15.3034L7.41073 15.7236ZM6.47531 16.354L3.98071 12.5719L4.60435 12.1517L7.09895 15.9338L6.47531 16.354Z" fill="black"/>
<path fill-rule="evenodd" clip-rule="evenodd" d="M22.3784 5.63819L19.8838 1.85612L22.3784 5.63819ZM21.4428 6.26852L18.9482 2.48649L21.4428 6.26852ZM20.5073 6.89888L18.0127 3.11682L20.5073 6.89888Z" fill="black"/>
<path fill-rule="evenodd" clip-rule="evenodd" d="M22.0666 5.84829L19.572 2.06623L20.1957 1.64602L22.6903 5.42808L22.0666 5.84829ZM21.1311 6.47863L18.6365 2.6966L19.2601 2.27636L21.7547 6.05842L21.1311 6.47863ZM20.1958 7.109L17.7012 3.32694L18.3248 2.90672L20.8194 6.68875L20.1958 7.109Z" fill="black"/>
<path fill-rule="evenodd" clip-rule="evenodd" d="M20.6633 4.06232L21.5988 3.43199L20.6633 4.06232ZM18.6365 5.42805L19.7279 4.69266L18.6365 5.42805ZM6.00757 13.9377L6.94304 13.3073L6.00757 13.9377Z" fill="black"/>
<path fill-rule="evenodd" clip-rule="evenodd" d="M20.7673 4.2199L20.5594 3.90475L21.4949 3.27438L21.7028 3.58957L20.7673 4.2199ZM18.7404 5.58563L18.5325 5.27047L19.6238 4.53508L19.8317 4.85023L18.7404 5.58563ZM6.11142 14.0953L5.90356 13.7801L6.83901 13.1497L7.0469 13.4649L6.11142 14.0953Z" fill="white"/>
</svg>
