<svg xmlns="http://www.w3.org/2000/svg" width="100" height="94" fill="none" viewBox="0 0 100 94">
    <path fill="#fff" fill-rule="evenodd" d="M0 88.357v.541h1.185v3.442h.602v-3.442h1.19v-.54H0zM3.724 92.714v-4.383h.65v1.763h.005c.183-.244.482-.44.844-.44.655 0 1.001.392 1.001 1.202v1.858H5.58v-1.89c0-.492-.194-.662-.519-.662-.382 0-.692.345-.692.927v1.625h-.644zM14.042 81.163c.118-.129.332-.021.332.15v2.73c-1.633 1.269-3.62 1.827-5.89 1.827-5.156 0-8.23-3.267-8.23-8.49 0-5.352 3.642-8.513 8.514-8.513 2.318 0 3.997.388 5.463 1.57v2.708c0 .172-.212.28-.33.15-1.49-1.547-3.075-2.17-4.968-2.17-3.193 0-5.581 2.106-5.581 6.169 0 4.213 1.915 6.276 5.487 6.276 1.987 0 3.736-.902 5.203-2.407M23.645 83.592c3.264 0 4.967-2.537 4.967-6.212 0-3.676-1.703-6.234-4.967-6.234-3.24 0-4.92 2.558-4.92 6.234 0 3.675 1.68 6.212 4.92 6.212m0 2.279c-5.061 0-7.994-3.697-7.994-8.47 0-4.75 2.933-8.533 7.994-8.533 5.085 0 8.042 3.783 8.042 8.533 0 4.773-2.957 8.47-8.042 8.47M46.943 81.163c.118-.129.331-.021.331.15v2.73c-1.632 1.269-3.619 1.827-5.89 1.827-5.155 0-8.23-3.267-8.23-8.49 0-5.352 3.643-8.513 8.515-8.513 2.318 0 3.997.388 5.463 1.57v2.708c0 .172-.212.28-.331.15-1.49-1.547-3.075-2.17-4.967-2.17-3.193 0-5.582 2.106-5.582 6.169 0 4.213 1.916 6.276 5.487 6.276 1.987 0 3.737-.902 5.204-2.407M56.545 83.592c3.265 0 4.968-2.537 4.968-6.212 0-3.676-1.703-6.234-4.968-6.234-3.24 0-4.919 2.558-4.919 6.234 0 3.675 1.68 6.212 4.92 6.212m0 2.279c-5.062 0-7.995-3.697-7.995-8.47 0-4.75 2.933-8.533 7.994-8.533 5.086 0 8.042 3.783 8.042 8.533 0 4.773-2.956 8.47-8.042 8.47" clip-rule="evenodd"/>
    <path fill="#697278" fill-rule="evenodd" d="M82.47 69.061v2.257h-8.137v4.3h7.806v2.235h-7.806v7.824h-2.98V69.061H82.47zM92.852 77.272l5.771 8.405H95.36l-4.02-6.234h-.048l-4.02 6.234h-3.265l5.795-8.297v-.043l-5.676-8.276h3.24l3.95 6.083h.047l3.88-6.083h3.24l-5.63 8.168v.043z" clip-rule="evenodd"/>
    <path fill="#fff" fill-rule="evenodd" d="M7.43 90.862h1.347v-.016c0-.456-.23-.704-.613-.704-.351 0-.65.275-.734.714v.006zm1.809.979c.026-.027.073-.006.073.037v.524c-.2.243-.64.376-1.127.376-.844 0-1.431-.583-1.431-1.552 0-.926.582-1.577 1.415-1.577.834 0 1.285.55 1.285 1.504v.211h-2.06v.016c.03.582.367.874.864.874.372 0 .719-.165.98-.413z" clip-rule="evenodd"/>
    <mask id="ubrmdqyh3a" width="3" height="5" x="11" y="89" maskUnits="userSpaceOnUse">
        <path fill="#fff" fill-rule="evenodd" d="M11.073 89.65h2.684V94h-2.684v-4.35z" clip-rule="evenodd"/>
    </mask>
    <g mask="url(#ubrmdqyh3a)">
        <path fill="#fff" fill-rule="evenodd" d="M13.112 91.311v-.35c0-.428-.283-.777-.665-.777-.43 0-.703.386-.703 1.096 0 .635.288.878.65.878.45 0 .718-.35.718-.847m-1.725 1.842c.31.222.587.323.876.323.619 0 .85-.301.85-.836v-.392h-.006c-.163.254-.466.423-.807.423-.766 0-1.227-.476-1.227-1.386 0-.98.43-1.636 1.227-1.636.361 0 .613.165.78.387h.006l.037-.318h.629l.005 2.705c0 1.106-.44 1.577-1.463 1.577-.388 0-.691-.074-.98-.238v-.572c0-.042.042-.058.073-.037" clip-rule="evenodd"/>
    </g>
    <mask id="nuthispzkb" width="100" height="94" x="0" y="0" maskUnits="userSpaceOnUse">
        <path fill="#fff" fill-rule="evenodd" d="M0 94h100V0H0v94z" clip-rule="evenodd"/>
    </mask>
    <g fill-rule="evenodd" clip-rule="evenodd" mask="url(#nuthispzkb)">
        <path fill="#fff" d="M14.502 92.714h.65v-4.383h-.65v4.383zM17.054 92.237c.472 0 .713-.317.713-1.032 0-.73-.236-1.037-.713-1.037-.471 0-.712.307-.712 1.037 0 .715.246 1.032.712 1.032m0 .525c-.954 0-1.384-.73-1.384-1.557 0-.873.472-1.556 1.384-1.556.907 0 1.384.683 1.384 1.556 0 .826-.435 1.557-1.384 1.557M19.673 91.03v.477c0 .487.283.72.655.72.43 0 .676-.355.676-1.08 0-.635-.24-.979-.618-.979-.393 0-.713.365-.713.863m.839-1.382c.624 0 1.148.471 1.148 1.493 0 1.08-.546 1.62-1.264 1.62-.304 0-.576-.133-.718-.392h-.01l-.027.344h-.618v-4.383h.65v1.7h.005c.205-.265.52-.382.834-.382M23.805 91.518v-.334l-.629.09c-.346.048-.55.25-.55.556 0 .275.168.407.445.407.373 0 .734-.36.734-.72m-1.478-.947c-.032.027-.074.005-.074-.037v-.572c.33-.227.698-.36 1.164-.36.702 0 1.017.34 1.017 1.085v2.028h-.576l-.032-.365h-.005c-.184.254-.509.428-.865.428-.634 0-.975-.328-.975-.894 0-.561.367-.942 1.017-1.043l.791-.132v-.026c0-.371-.115-.53-.477-.53-.32 0-.618.106-.985.418M25.257 92.714h.65v-4.383h-.65v4.383zM28.73 91.03v.477c0 .487.282.72.654.72.43 0 .677-.355.677-1.08 0-.635-.242-.979-.619-.979-.393 0-.713.365-.713.863m.839-1.382c.624 0 1.148.471 1.148 1.493 0 1.08-.546 1.62-1.263 1.62-.305 0-.577-.133-.719-.392h-.01l-.027.344h-.618v-4.383h.65v1.7h.005c.205-.265.52-.382.834-.382M31.251 92.714h.65v-4.383h-.65v4.383zM33.804 92.237c.471 0 .713-.317.713-1.032 0-.73-.236-1.037-.713-1.037-.472 0-.713.307-.713 1.037 0 .715.246 1.032.713 1.032m0 .525c-.954 0-1.384-.73-1.384-1.557 0-.873.472-1.556 1.384-1.556.907 0 1.384.683 1.384 1.556 0 .826-.435 1.557-1.384 1.557M37.88 90.56c-.22-.25-.477-.37-.824-.37-.56 0-.833.449-.833 1.042 0 .624.272 1.022.86 1.022.34 0 .598-.138.817-.403.027-.031.074-.016.074.027v.576c-.257.25-.545.334-.923.334-.886 0-1.504-.524-1.504-1.55 0-.974.582-1.589 1.494-1.589.351 0 .65.095.912.312v.572c0 .043-.047.059-.074.027M39.619 90.967v.01l1.389 1.737h-.823l-.96-1.355h-.005l-.12.127v1.228h-.65v-4.383h.65v2.403h.005l.96-1.016h.817l-1.263 1.25zM43.395 90.56c-.22-.25-.477-.37-.824-.37-.56 0-.833.449-.833 1.042 0 .624.272 1.022.86 1.022.34 0 .598-.138.817-.403.027-.031.074-.016.074.027v.576c-.257.25-.545.334-.922.334-.886 0-1.505-.524-1.505-1.55 0-.974.582-1.589 1.494-1.589.351 0 .65.095.912.312v.572c0 .043-.047.059-.074.027M44.08 92.714v-4.383h.65v1.763h.005c.184-.244.483-.44.844-.44.655 0 1.002.392 1.002 1.202v1.858h-.645v-1.89c0-.492-.194-.662-.52-.662-.382 0-.691.345-.691.927v1.625h-.645zM48.793 91.518v-.334l-.63.09c-.345.048-.55.25-.55.556 0 .275.168.407.446.407.372 0 .734-.36.734-.72m-1.478-.947c-.032.027-.074.005-.074-.037v-.572c.33-.227.697-.36 1.164-.36.702 0 1.017.34 1.017 1.085v2.028h-.577l-.031-.365h-.005c-.184.254-.509.428-.865.428-.635 0-.975-.328-.975-.894 0-.561.367-.942 1.017-1.043l.791-.132v-.026c0-.371-.115-.53-.477-.53-.32 0-.619.106-.985.418M50.195 92.714h.785v-2.996h-.785v2.996zm-.1-3.816c0-.217.207-.408.49-.408.27 0 .502.19.502.408 0 .212-.233.402-.503.402-.282 0-.49-.196-.49-.402zM52.325 90.094h.005c.184-.244.482-.44.844-.44.656 0 1.001.392 1.001 1.202v1.858h-.644v-1.89c0-.492-.194-.662-.52-.662-.382 0-.691.345-.691.927v1.625h-.645v-2.996h.619l.031.376zM58.369 90.56c-.22-.25-.477-.37-.823-.37-.561 0-.834.449-.834 1.042 0 .624.273 1.022.86 1.022.34 0 .598-.138.817-.403.027-.031.074-.016.074.027v.576c-.257.25-.545.334-.922.334-.886 0-1.505-.524-1.505-1.55 0-.974.582-1.589 1.494-1.589.351 0 .65.095.912.312v.572c0 .043-.047.059-.073.027M60.512 90.348c-.12-.1-.21-.132-.403-.132-.294 0-.613.312-.613.868v1.63h-.65v-2.996h.634l.016.313c.136-.191.387-.377.65-.377.167 0 .314.016.44.101v.561c0 .043-.048.058-.074.032M61.884 92.603v-.021l-1.148-2.864h.687l.697 1.948.084.301.068-.301.634-1.948h.671l-1.21 3.271c-.215.593-.483 1.011-1.09 1.011-.142 0-.268-.01-.4-.058v-.492c0-.042.032-.053.069-.032.079.042.183.063.32.063.189 0 .346-.073.445-.365l.173-.513zM64.646 91.475c0 .498.267.768.718.768.382 0 .64-.44.64-1.075 0-.73-.242-.984-.672-.984-.382 0-.686.428-.686.857v.434zm.01.9v1.61h-.65v-4.267h.645l.02.307h.006c.179-.228.425-.376.786-.376.797 0 1.211.546 1.211 1.493 0 .91-.44 1.62-1.257 1.62-.336 0-.599-.17-.75-.387h-.01zM68.63 92.09c.032-.027.074-.011.074.031v.466c-.157.127-.393.185-.63.185-.523-.005-.748-.254-.748-.767V90.22h-.467v-.503h.467v-.699h.639v.699h.723v.503h-.723v1.72c0 .207.073.291.24.291.18 0 .31-.053.426-.143M70.378 92.237c.472 0 .713-.317.713-1.032 0-.73-.236-1.037-.713-1.037-.471 0-.713.307-.713 1.037 0 .715.246 1.032.713 1.032m0 .525c-.954 0-1.384-.73-1.384-1.557 0-.873.472-1.556 1.384-1.556.907 0 1.384.683 1.384 1.556 0 .826-.435 1.557-1.384 1.557M75.271 91.518v-.334l-.629.09c-.346.048-.55.25-.55.556 0 .275.168.407.445.407.373 0 .734-.36.734-.72m-1.478-.947c-.031.027-.073.005-.073-.037v-.572c.33-.227.697-.36 1.163-.36.703 0 1.018.34 1.018 1.085v2.028h-.577l-.032-.365h-.005c-.184.254-.509.428-.865.428-.634 0-.975-.328-.975-.894 0-.561.367-.942 1.017-1.043l.792-.132v-.026c0-.371-.116-.53-.478-.53-.32 0-.618.106-.985.418M78.427 90.56c-.336-.27-.598-.403-.923-.403-.257 0-.361.107-.361.297 0 .217.136.286.335.365l.336.148c.435.191.802.402.802.895 0 .566-.498.926-1.143.926-.362 0-.75-.085-1.08-.334V91.9c0-.043.042-.058.073-.037.31.249.666.397.986.397.34 0 .492-.122.492-.355 0-.153-.115-.264-.377-.38l-.298-.133c-.514-.233-.792-.44-.792-.926 0-.466.398-.816 1.053-.816.32 0 .64.08.97.318v.556c0 .042-.041.058-.073.037M81.029 90.56c-.335-.27-.597-.403-.923-.403-.257 0-.361.107-.361.297 0 .217.136.286.335.365l.336.148c.435.191.802.402.802.895 0 .566-.498.926-1.143.926-.362 0-.75-.085-1.08-.334V91.9c0-.043.042-.058.073-.037.31.249.666.397.986.397.34 0 .492-.122.492-.355 0-.153-.115-.264-.377-.38l-.298-.133c-.514-.233-.792-.44-.792-.926 0-.466.399-.816 1.053-.816.32 0 .64.08.97.318v.556c0 .042-.041.058-.073.037M82.354 90.862h1.347v-.016c0-.456-.23-.704-.613-.704-.351 0-.65.275-.734.714v.006zm1.809.979c.026-.027.073-.006.073.037v.524c-.2.243-.64.376-1.127.376-.844 0-1.43-.583-1.43-1.552 0-.926.58-1.577 1.414-1.577s1.285.55 1.285 1.504v.211h-2.06v.016c.03.582.366.874.864.874.373 0 .719-.165.98-.413zM86.43 92.09c.032-.027.074-.011.074.031v.466c-.157.127-.393.185-.629.185-.524-.005-.75-.254-.75-.767V90.22h-.466v-.503h.467v-.699h.64v.699h.723v.503h-.724v1.72c0 .207.073.291.241.291.178 0 .31-.053.425-.143M89.098 91.03v.477c0 .487.283.72.655.72.43 0 .676-.355.676-1.08 0-.635-.24-.979-.618-.979-.393 0-.713.365-.713.863m.839-1.382c.624 0 1.147.471 1.147 1.493 0 1.08-.545 1.62-1.263 1.62-.304 0-.576-.133-.718-.392h-.01l-.027.344h-.618v-4.383h.65v1.7h.005c.204-.265.52-.382.834-.382M92.99 91.518v-.334l-.63.09c-.346.048-.55.25-.55.556 0 .275.168.407.446.407.372 0 .734-.36.734-.72m-1.479-.947c-.031.027-.073.005-.073-.037v-.572c.33-.227.697-.36 1.164-.36.702 0 1.017.34 1.017 1.085v2.028h-.577l-.031-.365h-.006c-.183.254-.508.428-.864.428-.635 0-.976-.328-.976-.894 0-.561.367-.942 1.017-1.043l.792-.132v-.026c0-.371-.115-.53-.477-.53-.32 0-.619.106-.986.418M94.909 90.094h.005c.184-.244.482-.44.844-.44.656 0 1.001.392 1.001 1.202v1.858h-.644v-1.89c0-.492-.194-.662-.52-.662-.382 0-.691.345-.691.927v1.625h-.645v-2.996h.619l.031.376zM98.611 90.967v.01L100 92.715h-.823l-.96-1.355h-.004l-.121.127v1.228h-.65v-4.383h.65v2.403h.005l.96-1.016h.817l-1.263 1.25z"/>
        <path fill="#697278" d="M45.233 9.112h9.193V0h-9.193v9.112z"/>
        <path fill="#fff" d="M63.582 16.402l-.02-9.46L54.712 0h-.285v16.402h9.156z"/>
        <path fill="#697278" d="M45.233 41.005h9.193v-9.112h-9.193v9.112z"/>
        <path fill="#fff" d="M63.582 24.603l-.02 9.46-8.851 6.942h-.285V24.603h9.156zM44.95 0l-8.853 6.941-.037 17.662h.018l.02 9.46 8.851 6.942h.284V0h-.284z"/>
        <path fill="#697278" d="M24.293 25.329l8.53-6.373s.504-.519.504-.133v16.86l-8.643-5.617-1.053-1.985v-1.08s-.055-1.136.662-1.672"/>
        <path fill="#fff" d="M23.65 27.36V41.9c.011 1.23.616 2.38 1.615 3.107L47.68 61.313s.3.267.532.175c.233-.091.233-.111.233-.416V47.486s.075-.527-.299-.877l-22.87-16.955c-.345-.256-.646-.566-.89-.918-.3-.431-.665-.999-.708-1.255-.075-.444-.037-.093-.037-.093"/>
        <path fill="#697278" d="M75.368 25.329l-8.53-6.373s-.504-.519-.504-.133v16.86l8.642-5.617 1.053-1.985v-1.08s.055-1.136-.661-1.672"/>
        <path fill="#fff" d="M76.01 27.36V41.9c-.01 1.23-.616 2.38-1.615 3.107L51.979 61.313s-.298.267-.531.175c-.233-.091-.233-.111-.233-.416V47.486s-.074-.527.299-.877l22.87-16.955c.345-.256.645-.566.89-.918.299-.431.665-.999.708-1.255.075-.444.037-.093.037-.093"/>
    </g>
</svg>
