<svg xmlns="http://www.w3.org/2000/svg" id="menu_icon" width="20" height="18" viewBox="0 0 20 18">
    <defs>
        <style>
            .cls-1{fill:#fff}
        </style>
    </defs>
    <g id="그룹_750">
        <path id="패스_3205" d="M166.5 106.5h18a1 1 0 0 0 0-2h-18a1 1 0 0 0 0 2z" class="cls-1" transform="translate(-165.5 -104.5)"/>
    </g>
    <g id="그룹_751" transform="translate(10 8)">
        <path id="패스_3206" d="M166.5 114.5h8a1 1 0 0 0 0-2h-8a1 1 0 0 0 0 2z" class="cls-1" transform="translate(-165.5 -112.5)"/>
    </g>
    <g id="그룹_752" transform="translate(4 16)">
        <path id="패스_3207" d="M166.5 122.5h14a1 1 0 0 0 0-2h-14a1 1 0 0 0 0 2z" class="cls-1" transform="translate(-165.5 -120.5)"/>
    </g>
</svg>
