<svg xmlns="http://www.w3.org/2000/svg" width="40" height="40" fill="none" viewBox="0 0 40 40">
    <path fill="#222" d="M31.261 10.254l6.85.499.5-6.85-2.348-.172-.196 2.695C32.307 2.357 27.011 0 21.389 0c-11.028 0-20 8.972-20 20s8.972 20 20 20c6.669 0 12.879-3.317 16.612-8.873l-1.954-1.313c-3.295 4.904-8.775 7.832-14.658 7.832-9.73 0-17.646-7.916-17.646-17.646S11.659 2.354 21.389 2.354c5.004 0 9.715 2.12 13.039 5.77l-2.996-.218-.17 2.348z"/>
    <path fill="#222" d="M11.565 22.21c0-.756.757-1.247 1.832-1.792 1.235-.624 2.098-1.34 2.098-2.88 0-1.82-1.168-2.947-3.266-2.947-1.805 0-3.146.862-3.73 1.526l1.314 1.407c.478-.49 1.274-1.048 2.124-1.048.69 0 1.142.371 1.142 1.088 0 1.115-1.102 1.593-2.23 2.098-1.912.863-2.377 2.004-2.377 4.46h7.036V22.21h-3.943zM22.305 20.232v-5.549h-1.46l-4.381 5.55v1.898h3.717v1.978h2.124V22.13h1.168v-1.899h-1.168zm-1.885 0h-1.846l1.846-2.363v2.363zM29.221 17.02c-1.022 0-1.911.477-2.416 1.3v-3.89h-2.124v9.692h2.124v-3.996c.266-.743.97-1.235 1.474-1.235.61 0 1.009.412 1.009 1.315v3.916h2.124v-4.46c0-1.209-.319-2.642-2.19-2.642z"/>
</svg>
