<svg width="27" height="18" viewBox="0 0 27 18" fill="none" xmlns="http://www.w3.org/2000/svg">
<path fill-rule="evenodd" clip-rule="evenodd" d="M0 0H27V18H0V0Z" fill="#229E45"/>
<path fill-rule="evenodd" clip-rule="evenodd" d="M13.4113 16.362L24.7175 9.01788L13.3438 1.65121L2 9.03289L13.4113 16.362Z" fill="#F8E509"/>
<path fill-rule="evenodd" clip-rule="evenodd" d="M18.3387 9.00663C18.3387 11.6448 16.1974 13.7839 13.5537 13.7839C12.609 13.7824 11.6859 13.5006 10.9011 12.9742C10.1164 12.4478 9.50519 11.7004 9.14485 10.8264C8.78451 9.95246 8.69119 8.9912 8.87668 8.06417C9.06218 7.13714 9.51815 6.28595 10.187 5.61822C10.8558 4.95048 11.7074 4.49617 12.6342 4.31273C13.561 4.12928 14.5213 4.22494 15.3938 4.58759C16.2663 4.95025 17.0117 5.56363 17.5359 6.3502C18.0601 7.13676 18.3394 8.06119 18.3387 9.00663Z" fill="#2B49A3"/>
<path fill-rule="evenodd" clip-rule="evenodd" d="M11.9825 11.87L11.8325 11.7837L11.6825 11.8587L11.7162 11.6898L11.5962 11.5622L11.765 11.5435L11.8475 11.3934L11.9187 11.551L12.0837 11.581L11.96 11.6936L11.9825 11.87ZM15.185 12.6806L15.0387 12.5942L14.8887 12.6693L14.9187 12.5004L14.8025 12.3766L14.9712 12.3578L15.05 12.204L15.125 12.3616L15.29 12.3916L15.1625 12.5079L15.185 12.6806ZM13.805 11.3821L13.6775 11.3071L13.5462 11.3746L13.5762 11.2282L13.4712 11.1194L13.6212 11.1044L13.6887 10.9693L13.7487 11.1082L13.895 11.1344L13.7825 11.2358L13.805 11.3821ZM17.045 10.9168L16.9175 10.8417L16.7862 10.9093L16.8162 10.7629L16.715 10.6578L16.8612 10.6428L16.9287 10.5115L16.9887 10.6466L17.1312 10.6728L17.0225 10.7704L17.045 10.9168ZM13.7487 9.9448L13.5987 9.86224L13.4487 9.9373L13.4787 9.76467L13.3625 9.64083L13.5312 9.62206L13.61 9.4682L13.685 9.62582L13.85 9.65584L13.7225 9.77593L13.7487 9.9448ZM9.79998 8.46246L9.64998 8.3799L9.49998 8.45496L9.53748 8.28233L9.41373 8.15849L9.58623 8.13972L9.66123 7.98586L9.73623 8.14348L9.90123 8.1735L9.77748 8.28983L9.79998 8.46246ZM10.2762 10.4364L10.1262 10.3501L9.97623 10.4252L10.01 10.2563L9.88998 10.1324L10.0587 10.1099L10.1375 9.95981L10.2125 10.1174L10.3775 10.1475L10.2537 10.2638L10.2762 10.4364ZM15.2037 7.73818L15.0687 7.66312L14.9337 7.73067L14.9637 7.58056L14.8587 7.46798L15.0087 7.44922L15.08 7.31412L15.1437 7.45672L15.2937 7.48299L15.1812 7.58432L15.2037 7.73818ZM14.93 9.02162L14.8287 8.96158L14.72 9.01412L14.7425 8.89403L14.66 8.80772L14.78 8.7927L14.8362 8.68763L14.885 8.80021L14.9975 8.81897L14.915 8.90153L14.93 9.02162ZM9.58248 10.7929L9.48123 10.7366L9.37998 10.7854L9.40248 10.6728L9.32373 10.5903L9.43623 10.5753L9.48873 10.4739L9.53748 10.579L9.64998 10.6015L9.56373 10.6766L9.58248 10.7929ZM17.0712 11.2508L16.9887 11.2095L16.9062 11.247L16.925 11.1607L16.8612 11.1007L16.9512 11.0894L16.9962 11.0143L17.0337 11.0894L17.1275 11.1082L17.0562 11.1644" fill="#FFFFEF"/>
<path fill-rule="evenodd" clip-rule="evenodd" d="M9.58248 10.793L9.48123 10.7367L9.37998 10.7854L9.40248 10.6729L9.32373 10.5903L9.43623 10.5753L9.48873 10.474L9.53748 10.579L9.64998 10.6016L9.56373 10.6766" fill="#FFFFEF"/>
<path fill-rule="evenodd" clip-rule="evenodd" d="M9.58248 10.7929L9.48123 10.7366L9.37998 10.7854L9.40248 10.6728L9.32373 10.5903L9.43623 10.5753L9.48873 10.4739L9.53748 10.579L9.64998 10.6015L9.56373 10.6766L9.58248 10.7929ZM11.15 10.7892L11.0525 10.7366L10.9512 10.7854L10.9737 10.6728L10.895 10.5903L11.0075 10.5753L11.06 10.4739L11.1087 10.579L11.2212 10.5978L11.135 10.6766L11.15 10.7892ZM10.955 11.3146L10.8575 11.2583L10.7562 11.3108L10.7787 11.1982L10.7 11.1119L10.8125 11.0969L10.865 10.9956L10.9137 11.1006L11.0262 11.1232L10.94 11.1982L10.955 11.3146ZM14.2175 10.3651L14.12 10.3051L14.015 10.3576L14.0375 10.245L13.9625 10.1587L14.075 10.1474L14.1275 10.0461L14.1725 10.1512L14.285 10.17L14.2025 10.2488L14.2175 10.3651ZM13.2612 10.3614L13.16 10.3051L13.0587 10.3576L13.0812 10.245L13.0062 10.1587L13.1187 10.1474L13.1712 10.0424L13.2162 10.1512L13.3287 10.17L13.2462 10.2488L13.2612 10.3614ZM10.6662 10.0311L10.6025 9.99358L10.5387 10.0236L10.5537 9.9523L10.505 9.89976L10.5762 9.89226L10.6062 9.82846L10.6362 9.89601L10.7075 9.90727L10.655 9.95605L10.6662 10.0311ZM16.9475 11.6598L16.85 11.6035L16.7487 11.6561L16.7712 11.5435L16.6925 11.4572L16.805 11.4421L16.8575 11.3408L16.9062 11.4459L17.0187 11.4684L16.9325 11.5435L16.9475 11.6598ZM16.1525 11.7686L16.07 11.7161L15.9837 11.7611L16.0025 11.6636L15.9387 11.596L16.0325 11.5848L16.0775 11.4984L16.115 11.5885L16.2087 11.6035L16.1375 11.6711L16.1525 11.7686ZM16.5275 11.7574L16.4525 11.7123L16.3737 11.7499L16.3887 11.6636L16.3287 11.5998L16.415 11.5885L16.4562 11.5134L16.4937 11.5885L16.58 11.6073L16.5162 11.6673L16.5275 11.7574ZM17.6075 10.8117L17.5325 10.7742L17.4575 10.8117L17.4762 10.7254L17.4162 10.6616L17.5025 10.6503L17.54 10.5753L17.5775 10.6541L17.6562 10.6691L17.5962 10.7291L17.6075 10.8117ZM16.1412 12.2978L16.0475 12.2452L15.9462 12.2903L15.9687 12.1852L15.8937 12.1101L16.0062 12.0989L16.055 12.0051L16.1 12.1026L16.2125 12.1214L16.1262 12.1927L16.1412 12.2978ZM16.1487 12.7256L16.0587 12.6731L15.9687 12.7218L15.9912 12.6168L15.92 12.5417L16.0212 12.5267L16.0662 12.4329L16.1075 12.5304L16.2087 12.5492L16.1337 12.6243L16.1487 12.7256ZM15.4212 11.7574L15.35 11.7123L15.275 11.7499L15.29 11.6673L15.2337 11.6035L15.3162 11.596L15.3537 11.521L15.3912 11.596L15.4737 11.611L15.4137 11.6711L15.4212 11.7574ZM14.7462 11.7574L14.6712 11.7123L14.5962 11.7499L14.615 11.6673L14.555 11.6035L14.6412 11.596L14.6787 11.521L14.7162 11.596L14.795 11.611L14.735 11.6711L14.7462 11.7574ZM13.595 10.7479L13.52 10.7066L13.445 10.7441L13.4637 10.6578L13.4037 10.5978L13.4862 10.5865L13.5237 10.5115L13.5612 10.5865L13.6437 10.6053L13.5837 10.6616L13.595 10.7479ZM13.7225 12.8006L13.6625 12.7669L13.595 12.8006L13.61 12.7256L13.5612 12.6731L13.6325 12.6655L13.6662 12.6017L13.6962 12.6693L13.7675 12.6806L13.715 12.7293L13.7225 12.8006ZM11.9825 9.47945L11.8325 9.39314L11.6825 9.4682L11.7162 9.29932L11.5962 9.17548L11.765 9.15296L11.8475 9.00285L11.9187 9.16047L12.0837 9.19049L11.96 9.30683" fill="#FFFFEF"/>
<path fill-rule="evenodd" clip-rule="evenodd" d="M18.0237 10.7254C18.1166 10.4841 18.1893 10.2356 18.2412 9.98233C15.6987 7.74944 12.8674 6.60485 9.28994 6.84127C9.16019 7.09252 9.0535 7.35504 8.97119 7.6256C13.2087 7.2203 16.3212 9.09668 18.0237 10.7254Z" fill="white"/>
<path d="M16.8838 9.47196L16.97 9.52075C16.9571 9.54624 16.9532 9.57531 16.9588 9.60331C16.9675 9.63047 16.9863 9.65327 17.0113 9.66711C17.0375 9.68587 17.0638 9.69713 17.0863 9.69338C17.1088 9.69338 17.1238 9.68212 17.135 9.66711C17.1415 9.65715 17.1442 9.64513 17.1425 9.63333C17.1394 9.61947 17.133 9.60658 17.1238 9.59581C17.1163 9.58455 17.0975 9.55828 17.0675 9.52826C17.0367 9.49641 17.0136 9.45789 17 9.41567C16.9906 9.38372 16.9931 9.34947 17.0068 9.31916C17.0206 9.28886 17.0448 9.2645 17.075 9.25055C17.1023 9.23916 17.1324 9.23654 17.1613 9.24305C17.1965 9.25117 17.2297 9.26651 17.2588 9.28808C17.3113 9.32561 17.345 9.36313 17.3563 9.40817C17.3614 9.42923 17.3621 9.45115 17.3582 9.4725C17.3544 9.49384 17.346 9.51412 17.3338 9.53201L17.2438 9.47572C17.255 9.4532 17.2588 9.43068 17.2513 9.41192C17.2475 9.39316 17.2325 9.37439 17.2063 9.35938C17.187 9.34388 17.1634 9.3347 17.1388 9.33311C17.132 9.33288 17.1252 9.33451 17.1193 9.33781C17.1133 9.34112 17.1084 9.34598 17.105 9.35188C17.0975 9.36313 17.0975 9.37439 17.1013 9.3894C17.105 9.40441 17.1238 9.43444 17.1613 9.47196C17.1988 9.50949 17.2213 9.54327 17.2363 9.56578C17.2496 9.59038 17.2557 9.6183 17.2537 9.64624C17.2517 9.67418 17.2418 9.70096 17.225 9.7234C17.2075 9.74891 17.1826 9.76853 17.1538 9.77969C17.1256 9.79265 17.0942 9.79658 17.0638 9.79095C17.03 9.78344 16.9963 9.76843 16.9588 9.74216C16.9025 9.70464 16.8688 9.66335 16.8575 9.61832C16.8453 9.56726 16.8534 9.51344 16.88 9.46821L16.8838 9.47196ZM16.4488 9.18676L16.5425 9.23554C16.5309 9.26146 16.5283 9.29051 16.535 9.3181C16.5446 9.34386 16.5633 9.36522 16.5875 9.37815C16.6175 9.39691 16.64 9.40441 16.6625 9.40066C16.685 9.40066 16.7 9.3894 16.7113 9.37064C16.7169 9.36171 16.7196 9.35117 16.7188 9.34062C16.7188 9.32936 16.7113 9.31435 16.7 9.30309C16.6808 9.27988 16.6608 9.25735 16.64 9.23554C16.5988 9.19426 16.5725 9.16049 16.565 9.13046C16.5589 9.11115 16.557 9.09073 16.5596 9.07063C16.5622 9.05054 16.5692 9.03125 16.58 9.01413C16.5943 8.99097 16.6152 8.97266 16.64 8.96159C16.6658 8.9497 16.6945 8.94578 16.7225 8.95033C16.7572 8.95618 16.7903 8.96894 16.82 8.98786C16.8763 9.02539 16.91 9.06291 16.9213 9.10419C16.9281 9.12529 16.9303 9.14761 16.9277 9.16963C16.9251 9.19166 16.9178 9.21286 16.9063 9.23179L16.8125 9.17925C16.8238 9.15298 16.8275 9.13422 16.82 9.11545C16.8125 9.09669 16.7975 9.07792 16.7713 9.06291C16.7505 9.04801 16.7255 9.04012 16.7 9.0404C16.6938 9.04081 16.6879 9.04274 16.6827 9.04602C16.6774 9.04929 16.6731 9.0538 16.67 9.05916C16.6625 9.07042 16.6625 9.08168 16.6663 9.09669C16.67 9.1117 16.6925 9.14172 16.73 9.17925C16.7675 9.21678 16.7938 9.2468 16.805 9.26932C16.82 9.29285 16.828 9.3202 16.828 9.34812C16.828 9.37605 16.82 9.4034 16.805 9.42693C16.7888 9.45311 16.7654 9.47398 16.7375 9.48698C16.7094 9.49993 16.6779 9.50387 16.6475 9.49823C16.6089 9.49171 16.572 9.47768 16.5388 9.45695C16.4903 9.43109 16.4529 9.38838 16.4338 9.33687C16.4193 9.28676 16.4246 9.233 16.4488 9.18676ZM15.9163 9.04415L16.19 8.59382L16.52 8.80022L16.475 8.87528L16.235 8.72517L16.175 8.82649L16.4 8.96534L16.3513 9.0404L16.1263 8.90155L16.0513 9.02539L16.3025 9.1755L16.2575 9.25055L15.92 9.04415H15.9163ZM15.14 8.40618L15.1813 8.33113L15.3838 8.43245L15.29 8.62009C15.26 8.62759 15.2225 8.63135 15.1775 8.62759C15.1343 8.62283 15.0923 8.6101 15.0538 8.59007C15.0084 8.56794 14.9696 8.5343 14.9413 8.49249C14.9155 8.45366 14.9024 8.40776 14.9038 8.36115C14.9057 8.31263 14.9185 8.26517 14.9413 8.2223C14.9638 8.17717 14.9973 8.13845 15.0388 8.10971C15.0784 8.08228 15.1256 8.06786 15.1738 8.06843C15.2113 8.06843 15.2488 8.07969 15.2938 8.10596C15.3538 8.13223 15.3913 8.16976 15.41 8.21104C15.4295 8.25202 15.4335 8.29868 15.4213 8.34238L15.32 8.31236C15.3262 8.28723 15.3236 8.26072 15.3125 8.23731C15.3013 8.21479 15.2825 8.19978 15.2525 8.18477C15.235 8.17478 15.2156 8.16861 15.1956 8.16667C15.1755 8.16473 15.1553 8.16706 15.1363 8.17351C15.0988 8.18477 15.065 8.21854 15.0388 8.27108C15.0125 8.32362 15.0013 8.37241 15.0125 8.41369C15.0177 8.43326 15.0271 8.45147 15.04 8.46703C15.053 8.48259 15.0692 8.49512 15.0875 8.50375C15.1063 8.51501 15.1288 8.52252 15.1513 8.52252C15.1736 8.52591 15.1964 8.52591 15.2188 8.52252L15.2488 8.46247L15.14 8.40618ZM11.7575 7.56932L11.8325 7.04393L11.99 7.0702L12.0313 7.43797L12.1775 7.10022L12.335 7.12274L12.26 7.64062L12.1588 7.62561L12.2225 7.21656L12.0575 7.6106L11.9563 7.59559L11.915 7.17152L11.855 7.58433L11.7575 7.56932ZM11.2288 7.50552L11.2775 6.98013L11.6638 7.01766L11.6563 7.10773L11.375 7.08146L11.3638 7.19404L11.6263 7.22031L11.615 7.31038L11.3525 7.28411L11.3413 7.42671L11.6338 7.45298L11.6263 7.54305L11.2288 7.50552Z" fill="#309E3A"/>
<path d="M9.47745 7.17903C9.47745 7.12274 9.4887 7.08146 9.5037 7.04393C9.51685 7.01724 9.53463 6.9931 9.55621 6.97263C9.57544 6.95321 9.5984 6.93789 9.6237 6.92759C9.6612 6.91633 9.6987 6.90883 9.73621 6.90883C9.81496 6.90883 9.87496 6.93885 9.92371 6.98388C9.94691 7.01257 9.96417 7.0456 9.97447 7.08104C9.98477 7.11648 9.98791 7.15362 9.98371 7.19029C9.98371 7.27285 9.95746 7.3404 9.90871 7.38918C9.88365 7.41235 9.85402 7.43001 9.82172 7.441C9.78942 7.45199 9.75518 7.45607 9.72121 7.45298C9.68769 7.45332 9.65445 7.44684 9.62351 7.43394C9.59257 7.42104 9.56457 7.40198 9.5412 7.37792C9.49454 7.32265 9.47162 7.25115 9.47745 7.17903Z" fill="#309E3A"/>
<path d="M9.58618 7.17901C9.58618 7.2353 9.59743 7.28034 9.62368 7.31411C9.64993 7.34413 9.68368 7.3629 9.72868 7.3629C9.74815 7.36426 9.76768 7.36126 9.78584 7.35412C9.804 7.34698 9.82035 7.33588 9.83368 7.32162C9.85993 7.29159 9.87118 7.24656 9.87493 7.18276C9.87493 7.12272 9.86743 7.07769 9.83743 7.04766C9.82522 7.03254 9.8098 7.02032 9.79229 7.01188C9.77478 7.00344 9.75561 6.999 9.73618 6.99888C9.71645 6.99825 9.69683 7.00195 9.67869 7.00973C9.66055 7.01751 9.64433 7.02918 9.63118 7.04391C9.60118 7.07393 9.58993 7.11897 9.58618 7.17901Z" fill="#F7FFFF"/>
<path d="M10.0962 7.44923L10.1037 6.92384H10.3287C10.3849 6.92384 10.4224 6.93135 10.4487 6.94261C10.4749 6.95011 10.4937 6.96888 10.5087 6.99139C10.5237 7.01391 10.5312 7.04393 10.5312 7.07771C10.5315 7.11381 10.5181 7.14868 10.4937 7.17528C10.466 7.20127 10.4303 7.21713 10.3924 7.22031L10.4487 7.26534C10.4637 7.28036 10.4824 7.31038 10.5049 7.35166L10.5687 7.45674H10.4412L10.3662 7.33665L10.3137 7.26159C10.3046 7.25127 10.293 7.2435 10.2799 7.23907C10.2629 7.2341 10.2452 7.23157 10.2274 7.23157H10.2049V7.44923H10.0962Z" fill="#309E3A"/>
<path d="M10.2087 7.14901H10.2837C10.3362 7.14901 10.37 7.14901 10.3812 7.14151C10.3925 7.14151 10.4037 7.13025 10.4112 7.12275C10.4187 7.11524 10.4225 7.09648 10.4225 7.08522C10.4225 7.0627 10.4187 7.04769 10.4075 7.04019C10.4 7.02893 10.385 7.02142 10.37 7.01767H10.295L10.2087 7.01392V7.14526V7.14901Z" fill="white"/>
<path d="M10.6962 6.9501L10.8912 6.96136C10.9324 6.96136 10.9662 6.96512 10.9887 6.97262C11.0179 6.98322 11.0437 7.00134 11.0637 7.02516C11.0853 7.0514 11.1007 7.08219 11.1087 7.11523C11.1199 7.149 11.1237 7.19028 11.1199 7.23907C11.1199 7.27737 11.1136 7.3154 11.1012 7.35165C11.0862 7.38918 11.0637 7.4192 11.0374 7.44171C11.0156 7.45973 10.9899 7.47256 10.9624 7.47924C10.9399 7.48675 10.9062 7.48675 10.8687 7.48675L10.6699 7.47549L10.6962 6.9501Z" fill="#309E3A"/>
<path d="M10.7973 7.04391L10.7786 7.39292H10.9211C10.9398 7.39292 10.9548 7.38542 10.9661 7.37416C10.9773 7.3629 10.9886 7.34789 10.9961 7.32537C11.0036 7.30286 11.0111 7.26908 11.0111 7.2278L11.0073 7.13398C11.002 7.11419 10.9916 7.09611 10.9773 7.08144C10.9649 7.06891 10.9493 7.05985 10.9323 7.05517C10.904 7.04886 10.8751 7.04509 10.8461 7.04391H10.7973Z" fill="white"/>
<path d="M13.2688 7.8883L13.3925 7.37793L13.5575 7.41546L13.6775 7.45298C13.7038 7.468 13.7263 7.49051 13.7375 7.52429C13.7525 7.55431 13.7525 7.58808 13.745 7.62936C13.7375 7.65939 13.7263 7.68566 13.7075 7.70442C13.6938 7.7209 13.6766 7.73415 13.6571 7.74323C13.6377 7.75231 13.6165 7.75699 13.595 7.75696C13.5688 7.75696 13.5313 7.74945 13.4825 7.73819L13.4188 7.71943L13.3738 7.91457L13.2688 7.8883Z" fill="#309E3A"/>
<path d="M13.4714 7.49051L13.4414 7.63311L13.4977 7.64813C13.5352 7.65563 13.5652 7.66314 13.5802 7.65938C13.5947 7.65736 13.6084 7.65086 13.6191 7.64078C13.6298 7.6307 13.6372 7.61753 13.6402 7.60309C13.6402 7.58433 13.6402 7.56932 13.6327 7.55431C13.6244 7.53905 13.6112 7.52712 13.5952 7.52053L13.5239 7.50177L13.4752 7.49051H13.4714Z" fill="white"/>
<path d="M13.7563 8.03464L13.9326 7.53928L14.1388 7.61433C14.1951 7.6331 14.2288 7.65186 14.2513 7.66687C14.2701 7.68563 14.2851 7.7044 14.2888 7.73442C14.2926 7.76444 14.2963 7.79071 14.2888 7.82073C14.2738 7.85826 14.2513 7.88453 14.2213 7.90329C14.1913 7.91831 14.1538 7.92206 14.1088 7.91455C14.1238 7.93332 14.1388 7.95208 14.1463 7.9746L14.1763 8.07592L14.1988 8.19226L14.0826 8.15098L14.0451 8.01588C14.0383 7.98532 14.0295 7.95524 14.0188 7.92581C14.0139 7.91414 14.0062 7.90384 13.9963 7.89579C13.9888 7.88453 13.9738 7.87702 13.9476 7.86952L13.9288 7.86201L13.8538 8.07217L13.7563 8.03464Z" fill="#309E3A"/>
<path d="M13.9588 7.78322L14.0301 7.80949C14.0788 7.82825 14.1088 7.83576 14.1238 7.83576C14.1351 7.83576 14.1463 7.83576 14.1576 7.8245C14.1688 7.81699 14.1763 7.80574 14.1801 7.79072C14.1876 7.77571 14.1876 7.7607 14.1801 7.74569C14.1745 7.73115 14.1639 7.71913 14.1501 7.71192L14.0751 7.68565L14.0001 7.65938L13.9551 7.78322H13.9588Z" fill="white"/>
<path d="M14.3714 8.0159C14.3843 7.97196 14.406 7.9311 14.4351 7.89581C14.4541 7.87317 14.477 7.8541 14.5026 7.83952C14.5259 7.82638 14.5513 7.81748 14.5776 7.81325C14.6151 7.81325 14.6526 7.81325 14.6939 7.82826C14.7274 7.83656 14.7588 7.85189 14.7859 7.87324C14.8131 7.89459 14.8354 7.92147 14.8514 7.9521C14.8814 8.01214 14.8814 8.08345 14.8589 8.16601C14.8403 8.23694 14.7945 8.29764 14.7314 8.33488C14.6751 8.36866 14.6076 8.37241 14.5364 8.34989C14.503 8.34137 14.4717 8.32596 14.4446 8.30463C14.4174 8.2833 14.3951 8.25654 14.3789 8.22605C14.3639 8.19324 14.3555 8.15779 14.3542 8.12172C14.3529 8.08566 14.3587 8.04969 14.3714 8.0159Z" fill="#309E3A"/>
<path d="M14.4763 8.04592C14.4613 8.10221 14.4576 8.151 14.4763 8.18853C14.4951 8.22605 14.5213 8.24857 14.5626 8.26358C14.6001 8.27484 14.6376 8.27109 14.6751 8.24857C14.7126 8.22981 14.7351 8.18853 14.7538 8.12848C14.7726 8.07219 14.7726 8.02716 14.7538 7.98963C14.7464 7.97183 14.7352 7.95587 14.7209 7.9429C14.7067 7.92993 14.6897 7.92026 14.6713 7.91458C14.6529 7.9082 14.6333 7.90591 14.6138 7.90785C14.5944 7.90979 14.5756 7.91593 14.5588 7.92583C14.5213 7.94835 14.4951 7.98588 14.4763 8.04592Z" fill="white"/>
<path d="M15.395 8.74768L15.635 8.28233L15.8338 8.38366C15.8712 8.40165 15.9055 8.42574 15.935 8.45496C15.9538 8.47372 15.965 8.49624 15.965 8.52626C15.965 8.55628 15.965 8.58255 15.95 8.60882C15.9356 8.64257 15.9087 8.66945 15.875 8.68388C15.8375 8.69138 15.8 8.69138 15.7588 8.67637C15.7738 8.69889 15.7813 8.72141 15.7888 8.74017C15.7963 8.76269 15.8 8.79646 15.8038 8.84525L15.8113 8.96534L15.6988 8.90904L15.6838 8.77019C15.682 8.73871 15.6782 8.70738 15.6725 8.67637C15.67 8.66233 15.6635 8.64932 15.6538 8.63885L15.6088 8.61258L15.59 8.60132L15.4888 8.79646L15.395 8.74768Z" fill="#309E3A"/>
<path d="M15.6274 8.52626L15.6987 8.56379C15.7437 8.58631 15.7737 8.60132 15.7849 8.60132C15.7962 8.60132 15.8112 8.60132 15.8224 8.59381C15.8337 8.59006 15.8412 8.5788 15.8487 8.56379C15.8562 8.54878 15.8599 8.53377 15.8562 8.51876C15.8516 8.50382 15.8424 8.49069 15.8299 8.48123C15.808 8.46775 15.7855 8.45523 15.7624 8.4437L15.6874 8.40617L15.6274 8.52626Z" fill="white"/>
<path d="M17.3374 9.70838C17.3617 9.66979 17.3936 9.63659 17.4312 9.61081C17.4564 9.59464 17.4844 9.5832 17.5137 9.57703C17.5409 9.57147 17.569 9.57147 17.5962 9.57703C17.6337 9.58454 17.6674 9.59955 17.7012 9.62206C17.7304 9.64026 17.7554 9.66434 17.7748 9.69277C17.7942 9.7212 17.8074 9.75335 17.8137 9.78719C17.8249 9.85098 17.8062 9.92229 17.7612 9.99359C17.7235 10.0556 17.6628 10.1001 17.5924 10.1174C17.5589 10.1247 17.5241 10.1248 17.4905 10.1177C17.4569 10.1105 17.4252 10.0964 17.3974 10.0762C17.3682 10.058 17.3432 10.0339 17.3238 10.0054C17.3044 9.97702 17.2912 9.94486 17.2849 9.91103C17.2737 9.84348 17.2924 9.77593 17.3374 9.70838Z" fill="#309E3A"/>
<path d="M17.4311 9.76843C17.3936 9.81721 17.3824 9.86225 17.3899 9.90353C17.3927 9.92254 17.3994 9.94074 17.4098 9.95691C17.4201 9.97309 17.4338 9.98688 17.4499 9.99735C17.4874 10.0236 17.5249 10.0311 17.5624 10.0199C17.5999 10.0086 17.6374 9.98234 17.6711 9.9298C17.7049 9.87726 17.7199 9.83223 17.7124 9.7947C17.7086 9.75717 17.6861 9.7234 17.6524 9.69713C17.6186 9.67086 17.5774 9.6671 17.5399 9.67836C17.5024 9.68587 17.4649 9.71589 17.4274 9.76843H17.4311Z" fill="white"/>
<path d="M12.6763 7.6744L12.7625 7.30663L13.0325 7.37042L13.0213 7.43047L12.8225 7.38543L12.8038 7.46799L12.9875 7.50927L12.9725 7.57307L12.7888 7.52804L12.7663 7.62936L12.9725 7.67815L12.9575 7.73819L12.6763 7.6744Z" fill="#309E3A"/>
</svg>
