<svg width="27" height="18" viewBox="0 0 27 18" fill="none" xmlns="http://www.w3.org/2000/svg">
<path fill-rule="evenodd" clip-rule="evenodd" d="M0 18H27V0H0V18Z" fill="#DE2910"/>
<path fill-rule="evenodd" clip-rule="evenodd" d="M5.48083 4.81869L7.06786 3.66564H5.10619L4.50001 1.8L3.89383 3.66564H1.93213L3.51916 4.81869L2.91298 6.68433L4.50001 5.53131L6.08701 6.68433L5.48083 4.81869Z" fill="#FFDE00"/>
<path fill-rule="evenodd" clip-rule="evenodd" d="M8.8655 2.11636L9.20192 2.67706L9.25931 2.0257L9.89654 1.879L9.2948 1.62313L9.35219 0.971771L8.92289 1.465L8.32115 1.2091L8.65757 1.76983L8.22827 2.26306L8.8655 2.11636Z" fill="#FFDE00"/>
<path fill-rule="evenodd" clip-rule="evenodd" d="M10.5534 3.83936L10.6459 4.4867L10.9515 3.90866L11.5957 4.02071L11.1404 3.55139L11.4461 2.97335L10.8591 3.26132L10.4038 2.79197L10.4962 3.43931L9.90918 3.72728L10.5534 3.83936Z" fill="#FFDE00"/>
<path fill-rule="evenodd" clip-rule="evenodd" d="M11.1305 6.39444L11.6454 5.99136L10.9919 6.01482L10.7677 5.4006L10.588 6.02931L9.93457 6.05274L10.477 6.4179L10.2974 7.04661L10.8123 6.64356L11.3547 7.00869L11.1305 6.39444Z" fill="#FFDE00"/>
<path fill-rule="evenodd" clip-rule="evenodd" d="M9.28713 7.91106L9.31746 7.25787L8.90901 7.76847L8.29713 7.53777L8.65653 8.08404L8.24805 8.59464L8.87865 8.42166L9.23802 8.96793L9.26838 8.31474L9.89898 8.14176L9.28713 7.91106Z" fill="#FFDE00"/>
</svg>
