<svg xmlns="http://www.w3.org/2000/svg" width="40" height="40" fill="none" viewBox="0 0 40 40">
    <path fill="#000" d="M39.167 28.333h-2.5V10c0-1.838-1.495-3.333-3.334-3.333H6.667c-1.839 0-3.334 1.495-3.334 3.333v18.333h-2.5c-.46 0-.833.373-.833.834V30c0 1.838 1.495 3.333 3.333 3.333h33.334C38.505 33.333 40 31.838 40 30v-.833c0-.461-.373-.834-.833-.834zM5 10c0-.919.748-1.667 1.667-1.667h26.666C34.252 8.333 35 9.081 35 10v18.333H5V10zm31.667 21.667H3.333c-.918 0-1.666-.748-1.666-1.667h13.821l.59.59c.156.155.367.243.589.243h6.666c.222 0 .433-.087.59-.244l.589-.589h13.821c0 .919-.747 1.667-1.666 1.667z"/>
</svg>
