<svg xmlns="http://www.w3.org/2000/svg" width="116" height="44" fill="none" viewBox="0 0 116 44">
    <path fill="#8BB0D2" d="M19.983 2h-5.965v5.926h5.965V2z"/>
    <path fill="#fff" d="M25.924 12.667l-.012-6.151L20.168 2h-.185v10.667h5.94z"/>
    <path fill="#8BB0D2" d="M19.983 22.74h-5.965v5.927h5.965V22.74z"/>
    <path fill="#fff" d="M25.924 18l-.012 6.151-5.744 4.516h-.185V18h5.94zM13.833 2L8.089 6.516 8.065 18h.012l.012 6.151 5.744 4.516h.185V2h-.185z"/>
    <path fill="#8BB0D2" d="M.43 18.471l5.535-4.145s.328-.338.328-.086v10.966l-5.61-3.653-.682-1.292v-.703s-.036-.737.429-1.087z"/>
    <path fill="#fff" d="M.012 19.793v9.454c.006.8.4 1.547 1.047 2.021l14.545 10.605s.194.174.346.115c.152-.06.152-.071.152-.27v-8.835s.048-.344-.193-.572L1.069 21.286c-.224-.166-.421-.367-.58-.599-.193-.281-.432-.649-.459-.814-.047-.288-.023-.06-.023-.06"/>
    <path fill="#8BB0D2" d="M33.57 18.471l-5.535-4.145s-.328-.338-.328-.086v10.966l5.607-3.653.683-1.292v-.703c.003 0 .039-.737-.426-1.087z"/>
    <path fill="#fff" d="M33.988 19.793v9.454c-.006.8-.4 1.547-1.047 2.021L18.396 41.873s-.194.174-.346.115c-.152-.06-.152-.071-.152-.27v-8.835s-.048-.344.194-.572l14.84-11.025c.224-.166.42-.367.579-.599.194-.281.432-.649.46-.814.047-.288.023-.06.023-.06M56.008 8.288h-4.332v7.752h3.99c3.154 0 5.092-1.026 5.092-4.142 0-2.128-1.482-3.61-4.75-3.61zm-.038 11.438h-4.294v10.032h4.864c3.42 0 5.51-2.09 5.51-4.978s-2.014-5.054-6.08-5.054zm5.016-2.128c3.268.646 6.042 3.42 6.042 7.22 0 4.408-3.344 8.892-10.07 8.892h-9.994V4.336h9.804c6.08 0 8.93 3.42 8.93 6.916 0 3.002-1.634 5.244-4.712 6.308v.038zm53.617 8.132c.19-.228.532-.038.532.266v4.826c-2.622 2.242-5.814 3.23-9.462 3.23-8.285 0-13.225-5.776-13.225-15.01 0-9.462 5.853-15.048 13.681-15.048 3.724 0 6.422.684 8.778 2.774v4.788c0 .304-.342.494-.532.266-2.394-2.736-4.94-3.838-7.98-3.838-5.13 0-8.968 3.724-8.968 10.906 0 7.448 3.078 11.096 8.816 11.096 3.192 0 6.004-1.596 8.36-4.256z"/>
    <path fill="#8BB0D2" d="M71.852 11.1c-.228.19-.494.076-.494-.228V7.148c2.166-1.976 5.168-3.306 8.398-3.306 5.662 0 8.892 2.622 8.892 7.942 0 3.572-2.546 7.144-5.624 10.412l-7.144 7.638v.076h13.186v3.8H70.484v-3.572l8.854-9.69c3.61-3.952 4.522-6.346 4.522-8.664 0-2.432-1.406-4.18-4.37-4.18-2.508 0-5.13 1.14-7.638 3.496z"/>
</svg>
