<svg xmlns="http://www.w3.org/2000/svg" width="40" height="40" fill="none" viewBox="0 0 40 40">
    <path fill="#222" d="M31.583 24.641c-.785-1.636-3.593-3.908-6.306-6.103-1.514-1.223-2.944-2.38-3.855-3.292-.229-.23-.57-.303-.872-.195-.562.204-.908.36-1.182.482-.416.187-.556.25-1.118.307-.248.025-.472.158-.61.365-1.178 1.761-2.398 1.611-3.213 1.338-.26-.087-.307-.198-.332-.305-.175-.732.703-2.435 1.842-3.573 2.708-2.71 4.105-3.389 7.055-2.07 3.346 1.496 6.7 2.668 6.733 2.68.438.151.91-.079 1.062-.514.15-.435-.079-.91-.514-1.061-.033-.012-3.32-1.16-6.6-2.629-3.821-1.708-5.918-.583-8.913 2.414-1.14 1.14-2.688 3.446-2.288 5.138.171.72.678 1.253 1.431 1.502 1.889.623 3.612.026 4.895-1.677.53-.082.819-.202 1.252-.397.157-.07.34-.151.583-.25.954.895 2.24 1.937 3.595 3.032 2.45 1.982 5.229 4.228 5.854 5.528.308.642-.024 1.06-.249 1.252-.33.283-.781.373-1.026.202-.27-.185-.622-.197-.9-.03-.28.166-.437.481-.402.805.057.53-.428.833-.638.938-.534.27-1.09.223-1.299.03-.233-.217-.568-.28-.865-.17-.296.112-.503.385-.533.702-.05.546-.455 1.071-.983 1.276-.255.097-.625.155-.957-.148-.207-.187-.493-.258-.762-.193-.271.066-.49.263-.585.525-.031.083-.103.283-.883.283-.555 0-1.553-.375-2.042-.698-.585-.385-4.253-3.122-7.421-5.775-.445-.375-1.215-1.179-1.895-1.889-.604-.63-1.155-1.201-1.439-1.441-.355-.3-.88-.255-1.175.098-.296.352-.253.878.099 1.175.258.218.758.747 1.31 1.322.743.776 1.511 1.58 2.028 2.013 3.103 2.598 6.833 5.403 7.577 5.892.613.403 1.935.97 2.958.97.822 0 1.453-.189 1.892-.557.586.228 1.253.23 1.895-.02.758-.293 1.381-.885 1.735-1.602.656.14 1.408.042 2.091-.301.669-.337 1.152-.852 1.392-1.454.663.035 1.347-.2 1.912-.685.956-.818 1.22-2.091.666-3.24z"/>
    <path fill="#222" d="M16.667 10.833h-7.5c-.46 0-.834.373-.834.833 0 .46.374.834.834.834h7.5c.46 0 .833-.374.833-.834 0-.46-.373-.833-.833-.833zM34.025 22.868c-.258-.382-.775-.487-1.157-.227l-2.436 1.637c-.382.257-.484.775-.227 1.157.162.238.425.368.693.368.159 0 .32-.045.464-.142l2.436-1.636c.382-.257.484-.775.227-1.157zM28.852 26.845c-.597-.47-3.265-3.202-4.915-4.922-.319-.333-.847-.345-1.179-.025-.333.319-.343.847-.025 1.178.429.447 4.207 4.386 5.085 5.079.152.12.335.178.515.178.245 0 .49-.11.657-.318.285-.36.223-.885-.138-1.17zM25.522 28.517c-.999-.799-3.507-3.464-4.074-4.08-.313-.34-.838-.36-1.178-.05-.338.311-.362.84-.05 1.178.03.031 3.023 3.263 4.26 4.253.153.122.338.182.52.182.243 0 .487-.108.652-.312.286-.36.228-.885-.13-1.171zM22.205 30.195c-1.188-1.002-3.62-3.59-4.095-4.099-.315-.336-.843-.355-1.178-.04-.337.315-.354.842-.04 1.179.683.731 3.01 3.198 4.238 4.235.157.131.347.196.537.196.236 0 .473-.101.638-.296.297-.354.252-.879-.1-1.175z"/>
    <path fill="#222" d="M9.74 9.395C8.312 8.04 2.6 7.603.883 7.5c-.236-.011-.455.067-.621.225-.167.157-.262.377-.262.607v15c0 .46.373.833.833.833h5c.36 0 .68-.231.792-.575.122-.373 2.993-9.186 3.372-13.52.021-.253-.072-.503-.257-.676zM5.225 22.5H1.667V9.226c2.678.212 5.568.672 6.618 1.182-.442 3.65-2.44 10.135-3.06 12.092zM39.167 9.166c-6.544 0-10.174 1.675-10.325 1.745-.217.102-.379.29-.445.519-.067.228-.034.473.091.676 1.03 1.659 4.255 10.869 4.875 13.115.1.362.429.612.804.612h5c.46 0 .833-.373.833-.833V10c0-.462-.373-.834-.833-.834zm-.834 15H34.79c-.79-2.573-3.123-9.283-4.425-12.056 1.272-.432 4.003-1.174 7.968-1.267v13.323z"/>
</svg>
