<svg width="27" height="19" viewBox="0 0 27 19" fill="none" xmlns="http://www.w3.org/2000/svg">
<rect y="1.12001" width="27" height="17.88" fill="#FE0000"/>
<rect y="1.12001" width="13.5616" height="8.93999" fill="#000095"/>
<path fill-rule="evenodd" clip-rule="evenodd" d="M7.43269 6.29905L7.62304 5.59L7.43269 4.88097L10.1094 5.59001L7.43269 6.29905ZM6.00515 6.29899L6.71902 6.48809L7.43269 6.29905L6.71893 8.95781L6.00515 6.29899ZM6.00515 6.29899L3.32861 5.59001L6.00515 4.88102L5.81482 5.59L6.00515 6.29899ZM6.00515 4.88102L6.71893 2.2222L7.43269 4.88097L6.71902 4.69193L6.00515 4.88102Z" fill="white"/>
<path fill-rule="evenodd" clip-rule="evenodd" d="M6.99999 6.54616L7.52364 6.02295L7.71888 5.31177L9.66856 7.25064L6.99999 6.54616ZM5.78102 5.84847L6.29564 6.36022L6.99999 6.54616L5.05636 8.48816L5.78102 5.84847ZM5.78102 5.84847L3.83134 3.9096L6.49992 4.61407L5.97626 5.13729L5.78102 5.84847ZM6.49992 4.61407L8.44355 2.67207L7.71888 5.31177L7.20427 4.80001L6.49992 4.61407Z" fill="white"/>
<path fill-rule="evenodd" clip-rule="evenodd" d="M6.49993 6.54612L7.20441 6.36008L7.71909 5.84835L8.44336 8.48763L6.49993 6.54612ZM5.78119 5.31198L5.97632 6.02303L6.49993 6.54612L3.83106 7.25094L5.78119 5.31198ZM5.78119 5.31198L5.05689 2.6726L7.00035 4.61413L6.29596 4.80016L5.78119 5.31198ZM7.00035 4.61413L9.66931 3.90929L7.71909 5.84835L7.52393 5.1372L7.00035 4.61413Z" fill="white"/>
<ellipse cx="6.71906" cy="5.59001" rx="1.91096" ry="1.89822" fill="#000095"/>
<ellipse cx="6.71932" cy="5.59001" rx="1.66438" ry="1.65329" fill="white"/>
</svg>
